<svg width="649" height="1507" viewBox="0 0 649 1507" fill="none" xmlns="http://www.w3.org/2000/svg">
<path d="M-118.097 1461.01C-191.567 1421.46 -263.781 1362.75 -306.461 1268.18C-347.089 1178.16 -332.068 1065.56 -343.843 960.797C-355.926 853.281 -402.951 744.797 -376.581 644.288C-349.897 542.585 -255.987 521.003 -206.872 438.74C-126.625 304.335 -118.127 64.7896 0.799733 12.214C112.444 -37.1422 247.16 73.3005 324.187 203.968C398.05 329.267 335.774 527.388 389.509 671.614C450.174 834.44 664.673 891.782 647.392 1071.46C630.199 1250.23 435.581 1241.7 326.26 1329.26C255.162 1386.2 197.46 1472.33 117.097 1496.16C39.0348 1519.3 -42.2957 1501.81 -118.097 1461.01Z" fill="#F5F5F5"/>
</svg>
